<svg xmlns="http://www.w3.org/2000/svg" width="128" height="128" fill="none" xmlns:v="https://vecta.io/nano"><style><![CDATA[.B{color-interpolation-filters:sRGB}.C{flood-opacity:0}.D{fill:#f2e5bc}]]></style><path d="M128 64c0 35.346-28.654 64-64 64S0 99.346 0 64 28.654 0 64 0s64 28.654 64 64z" fill="#fff"/><g fill="#a76e46"><circle cx="31.5" cy="40" r="12.5"/><circle cx="96.5" cy="40" r="12.5"/><path d="M64 110L26.345 87.407c-6.898-4.139-9.303-12.983-5.451-20.045l20.264-37.15A10 10 0 0 1 49.936 25h28.127a10 10 0 0 1 8.779 5.212l20.263 37.15a15 15 0 0 1-5.451 20.045L64 110z"/></g><g filter="url(#A)" class="D"><circle cx="48" cy="57.5" r="5"/></g><g filter="url(#B)" class="D"><circle cx="80" cy="57.5" r="5"/></g><g filter="url(#C)" class="D"><path d="M55.636 51.512A3 3 0 0 1 58.241 50h11.518a3 3 0 0 1 2.605 1.512L86.37 76.023c2.286 4-.603 8.977-5.21 8.977H46.839c-4.607 0-7.495-4.977-5.209-8.977l14.007-24.512z"/></g><g filter="url(#D)"><path d="M64 87.5L53.759 73.163C52.813 71.839 53.76 70 55.386 70h17.227c1.627 0 2.573 1.839 1.627 3.162L64 87.5z" fill="#282828"/></g><defs><filter id="A" x="39" y="52.5" width="18" height="18" filterUnits="userSpaceOnUse" class="B"><feFlood result="A" class="C"/><feColorMatrix in="SourceAlpha" values="0 0 0 0 0 0 0 0 0 0 0 0 0 0 0 0 0 0 127 0" result="B"/><feOffset dy="4"/><feGaussianBlur stdDeviation="2"/><feComposite in2="B" operator="out"/><feColorMatrix values="0 0 0 0 0 0 0 0 0 0 0 0 0 0 0 0 0 0 0.25 0"/><feBlend in2="A"/><feBlend in="SourceGraphic"/></filter><filter id="B" x="71" y="52.5" width="18" height="18" filterUnits="userSpaceOnUse" class="B"><feFlood result="A" class="C"/><feColorMatrix in="SourceAlpha" values="0 0 0 0 0 0 0 0 0 0 0 0 0 0 0 0 0 0 127 0" result="B"/><feOffset dy="4"/><feGaussianBlur stdDeviation="2"/><feComposite in2="B" operator="out"/><feColorMatrix values="0 0 0 0 0 0 0 0 0 0 0 0 0 0 0 0 0 0 0.25 0"/><feBlend in2="A"/><feBlend in="SourceGraphic"/></filter><filter id="C" x="36.83" y="50" width="54.34" height="43" filterUnits="userSpaceOnUse" class="B"><feFlood result="A" class="C"/><feColorMatrix in="SourceAlpha" values="0 0 0 0 0 0 0 0 0 0 0 0 0 0 0 0 0 0 127 0" result="B"/><feOffset dy="4"/><feGaussianBlur stdDeviation="2"/><feComposite in2="B" operator="out"/><feColorMatrix values="0 0 0 0 0 0 0 0 0 0 0 0 0 0 0 0 0 0 0.25 0"/><feBlend in2="A"/><feBlend in="SourceGraphic"/></filter><filter id="D" x="49.383" y="68" width="29.234" height="25.5" filterUnits="userSpaceOnUse" class="B"><feFlood result="A" class="C"/><feColorMatrix in="SourceAlpha" values="0 0 0 0 0 0 0 0 0 0 0 0 0 0 0 0 0 0 127 0" result="B"/><feOffset dy="2"/><feGaussianBlur stdDeviation="2"/><feComposite in2="B" operator="out"/><feColorMatrix values="0 0 0 0 0 0 0 0 0 0 0 0 0 0 0 0 0 0 0.25 0"/><feBlend in2="A"/><feBlend in="SourceGraphic"/></filter></defs></svg>