<svg width="100" height="85" viewBox="0 0 100 85" fill="none" xmlns="http://www.w3.org/2000/svg"><ellipse cx="17.5" cy="15" rx="12.5" ry="12.5" fill="#282828"/><circle cx="82.5" cy="15" r="12.5" fill="#282828"/><path d="M50 85L12.3446 62.4068C5.44639 58.2678 3.04145 49.424 6.89366 42.3616L27.1574 5.21148C28.9097 1.99887 32.2769 0 35.9363 0L64.0637 0C67.7231 0 71.0903 1.99887 72.8426 5.21148L93.1063 42.3616C96.9585 49.424 94.5536 58.2678 87.6553 62.4068L50 85Z" fill="#282828"/><path d="M41.6362 26.5116C42.1704 25.5768 43.1644 25 44.241 25H55.759C56.8356 25 57.8296 25.5768 58.3638 26.5116L72.3704 51.0232C74.6561 55.0231 71.7679 60 67.1609 60H32.8391C28.2321 60 25.3439 55.0231 27.6296 51.0232L41.6362 26.5116Z" fill="#F2E5BC"/><path d="M50 62.5L39.7589 48.1624C38.8134 46.8387 39.7596 45 41.3864 45H58.6136C60.2404 45 61.1866 46.8387 60.2411 48.1624L50 62.5Z" fill="#282828"/><circle cx="34" cy="32.5" r="5" fill="#F2E5BC"/><circle cx="66" cy="32.5" r="5" fill="#F2E5BC"/></svg>
