<svg width="125" height="125" viewBox="0 0 125 125" fill="none" xmlns="http://www.w3.org/2000/svg"><path d="M125 62.5C125 97.0178 97.0178 125 62.5 125C27.9822 125 0 97.0178 0 62.5C0 27.9822 27.9822 0 62.5 0C97.0178 0 125 27.9822 125 62.5Z" fill="white"/><ellipse cx="30.5" cy="40" rx="12.5" ry="12.5" fill="#282828"/><circle cx="95.5" cy="40" r="12.5" fill="#282828"/><path d="M63 110L25.3447 87.4068C18.4464 83.2678 16.0415 74.424 19.8937 67.3616L40.1574 30.2115C41.9097 26.9989 45.2769 25 48.9363 25L77.0637 25C80.7231 25 84.0903 26.9989 85.8426 30.2115L106.106 67.3616C109.959 74.424 107.554 83.2678 100.655 87.4068L63 110Z" fill="#282828"/><path d="M54.6362 51.5116C55.1704 50.5768 56.1644 50 57.241 50H68.759C69.8356 50 70.8296 50.5768 71.3638 51.5116L85.3704 76.0232C87.6561 80.0231 84.7679 85 80.1609 85H45.8391C41.2321 85 38.3439 80.0231 40.6296 76.0232L54.6362 51.5116Z" fill="#F2E5BC"/><path d="M63 87.5L52.7589 73.1624C51.8134 71.8387 52.7596 70 54.3864 70H71.6136C73.2404 70 74.1866 71.8387 73.2411 73.1624L63 87.5Z" fill="#282828"/><circle cx="47" cy="57.5" r="5" fill="#F2E5BC"/><circle cx="79" cy="57.5" r="5" fill="#F2E5BC"/></svg>
