<svg xmlns="http://www.w3.org/2000/svg" viewBox="0 -0.5 20 20" shape-rendering="crispEdges"><path stroke="#311311" d="M7 0h3M6 1h1M5 2h1m2 0h1M3 3h2M2 4h1m12 0h1M1 5h1m14 0h1M0 6h1m16 1h1m-1 1h2M6 9h1m0 1h1m1 0h1m3 0h2m-8 1h2m1 0h4m-7 1h3m-2 1h2m-2 1h2m2 0h1m-5 1h2m1 0h2m-6 1h5m-5 1h5m-6 1h2m2 0h1m-5 1h2m1 0h2m1 0h1"/><path stroke="#522617" d="M7 1h1m3 0h2M6 2h2m5 0h1M7 3h1m6 0h1M6 4h2M6 5h3m3 0h1M5 6h2m1 0h1M4 7h3m5 0h2M3 8h4m2 0h5m2 0h1M3 9h3m1 0h1m2 0h4M4 10h3m1 0h1m1 0h3m-9 1h3m-3 1h3m-4 1h5m-5 1h1m1 0h3m-3 1h3m-3 1h2m-4 1h1m1 0h2m-4 1h3m5 0h1m-9 1h3m5 0h1"/><path stroke="#c48c46" d="M8 1h2m2 3h2M0 9h1"/><path stroke="#000" d="M10 1h1m2 4h1m3 1h2m0 1h1m-1 1h1m-2 1h1m-4 1h3m-9 1h1m4 0h1m-5 1h4m-4 1h4m-4 1h2m1 0h1m-4 1h1m1 1h1m-1 1h1m-5 1h2m2 0h1m-5 1h1"/><path stroke="#7e4115" d="M9 2h1m2 0h1M5 3h2m1 0h2M5 4h1m2 0h2m4 0h1M4 5h2m8 0h1M4 6h1m2 0h1m3 0h4M3 7h1m3 0h5M9 9h1m-8 1h2m-2 1h2m-2 1h2m-2 1h1m-1 1h1m1 0h1m-3 1h3m-4 1h4m-5 1h3m1 0h1m-5 1h3m-3 1h3"/><path stroke="#b25d1b" d="M10 2h2m-2 1h4M3 4h2m5 0h2M2 5h2m5 0h3m3 0h1M1 6h3m5 0h2M0 7h3M0 8h3m4 0h2M1 9h2m5 0h1m-9 1h2m-2 1h2m-2 1h2m-2 1h2m-2 1h2m-2 1h2m-2 1h1"/><path stroke="#86694c" d="M15 6h2m-2 1h2m-2 2h2"/><path stroke="#524843" d="M14 7h1m3 0h1m-5 1h2m-2 1h1m2 0h1"/></svg>